<svg id="svg" xmlns="http://www.w3.org/2000/svg" xmlns:xlink="http://www.w3.org/1999/xlink" width="400" height="219.35483870967744" viewBox="0, 0, 400,219.35483870967744"><g id="svgg"><path id="path0" d="M12.903 70.968 L 12.903 129.032 70.968 129.032 L 129.032 129.032 129.032 148.387 L 129.032 167.742 70.968 167.742 L 12.903 167.742 12.903 187.097 L 12.903 206.452 90.323 206.452 L 167.742 206.452 167.742 148.387 L 167.742 90.323 109.677 90.323 L 51.613 90.323 51.613 70.968 L 51.613 51.613 109.677 51.613 L 167.742 51.613 167.742 32.258 L 167.742 12.903 90.323 12.903 L 12.903 12.903 12.903 70.968 M232.258 109.677 L 232.258 206.452 251.613 206.452 L 270.968 206.452 270.968 167.742 L 270.968 129.032 329.032 129.032 L 387.097 129.032 387.097 109.677 L 387.097 90.323 329.032 90.323 L 270.968 90.323 270.968 70.968 L 270.968 51.613 329.032 51.613 L 387.097 51.613 387.097 32.258 L 387.097 12.903 309.677 12.903 L 232.258 12.903 232.258 109.677 M180.645 58.065 L 180.645 77.419 200.000 77.419 L 219.355 77.419 219.355 58.065 L 219.355 38.710 200.000 38.710 L 180.645 38.710 180.645 58.065 M180.645 148.387 L 180.645 206.452 200.000 206.452 L 219.355 206.452 219.355 148.387 L 219.355 90.323 200.000 90.323 L 180.645 90.323 180.645 148.387 " stroke="none" fill="currentColor" fill-rule="evenodd"></path></g></svg>
